<?xml version="1.0" standalone="no"?>
<!DOCTYPE svg PUBLIC "-//W3C//DTD SVG 20010904//EN"
 "http://www.w3.org/TR/2001/REC-SVG-20010904/DTD/svg10.dtd">
<svg version="1.0" xmlns="http://www.w3.org/2000/svg"
 width="1080.000000pt" height="1080.000000pt" viewBox="0 0 1080.000000 1080.000000"
 preserveAspectRatio="xMidYMid meet">
<metadata>
Created by potrace 1.11, written by Peter Selinger 2001-2013
</metadata>
<g transform="translate(0.000000,1080.000000) scale(0.100000,-0.100000)"
fill="#000000" stroke="none">
<path d="M5355 9713 c-22 -38 -48 -84 -58 -103 -27 -50 -60 -104 -67 -110 -3
-3 -14 -24 -24 -47 -11 -24 -23 -43 -28 -43 -4 0 -8 -4 -8 -9 0 -13 -162 -295
-174 -303 -6 -4 -7 -8 -3 -8 5 0 -1 -12 -12 -26 -12 -15 -21 -33 -21 -40 0 -8
-3 -14 -8 -14 -4 0 -22 -28 -40 -62 -18 -35 -37 -70 -42 -78 -47 -75 -90 -152
-90 -160 0 -6 -4 -10 -9 -10 -5 0 -11 -8 -14 -17 -4 -10 -21 -44 -39 -75 -18
-31 -63 -109 -100 -174 -38 -64 -68 -121 -68 -125 0 -5 -3 -9 -8 -9 -4 0 -14
-15 -21 -32 -8 -18 -21 -39 -28 -46 -7 -7 -13 -20 -13 -28 0 -8 -4 -14 -10
-14 -5 0 -10 -4 -10 -9 0 -6 -17 -38 -37 -73 -47 -78 -62 -105 -92 -160 -13
-23 -33 -56 -45 -73 -11 -16 -21 -34 -22 -40 -1 -5 -27 -52 -58 -103 -31 -51
-56 -95 -56 -98 0 -2 -12 -23 -27 -47 -15 -23 -26 -45 -25 -49 1 -5 -2 -8 -7
-8 -5 0 -11 -8 -14 -17 -4 -10 -17 -36 -31 -58 -14 -22 -32 -53 -41 -70 -8
-16 -23 -43 -33 -60 -17 -27 -108 -183 -143 -245 -8 -14 -18 -28 -24 -32 -5
-4 -7 -8 -3 -8 4 0 -8 -25 -27 -55 -19 -30 -35 -59 -35 -65 0 -5 -4 -10 -9
-10 -5 0 -14 -12 -20 -27 -19 -48 -53 -103 -63 -103 -5 0 -7 -4 -4 -9 3 -5 -4
-20 -15 -35 -11 -14 -18 -26 -15 -26 4 0 -9 -24 -28 -52 -18 -29 -50 -82 -70
-118 -20 -36 -48 -85 -62 -110 -15 -25 -38 -65 -52 -90 -14 -25 -30 -48 -36
-52 -6 -4 -8 -8 -4 -8 6 0 -52 -104 -72 -127 -5 -7 -10 -16 -10 -20 0 -5 -11
-25 -25 -44 -13 -20 -21 -39 -18 -43 4 -3 2 -6 -4 -6 -5 0 -20 -22 -33 -50
-13 -27 -27 -50 -31 -50 -4 0 -12 -12 -18 -27 -6 -16 -22 -46 -35 -68 -14 -22
-31 -51 -39 -65 -41 -75 -181 -316 -186 -320 -3 -3 -16 -25 -29 -50 -40 -76
-67 -125 -73 -130 -3 -3 -21 -34 -40 -70 -19 -36 -42 -74 -51 -84 -10 -11 -18
-23 -18 -27 0 -4 -32 -62 -72 -130 -133 -230 -178 -312 -178 -320 0 -5 -4 -9
-8 -9 -4 0 -21 -26 -37 -57 -16 -32 -32 -60 -35 -63 -11 -8 -34 -54 -32 -62 1
-5 -3 -8 -8 -8 -6 0 -10 -4 -10 -10 0 -5 -30 -60 -66 -122 -37 -62 -88 -150
-115 -196 -27 -46 -49 -87 -49 -92 0 -5 -6 -15 -13 -22 -17 -18 -147 -246
-147 -258 0 -6 -4 -10 -8 -10 -4 0 -18 -19 -30 -43 -25 -48 -49 -91 -112 -197
-24 -41 -43 -78 -42 -82 1 -5 -2 -8 -7 -8 -5 0 -11 -8 -15 -17 -3 -10 -10 -25
-15 -33 -31 -46 -91 -152 -91 -160 0 -5 -7 -13 -16 -18 -9 -5 -15 -11 -13 -13
5 -9 -13 -49 -22 -49 -5 0 -9 -5 -9 -11 0 -6 -20 -45 -45 -85 -24 -41 -41 -74
-37 -74 4 0 -1 -5 -11 -11 -9 -6 -15 -14 -12 -18 2 -5 -2 -14 -10 -21 -8 -7
-15 -19 -15 -26 0 -8 -4 -14 -10 -14 -5 0 -10 -4 -10 -9 0 -5 -19 -42 -43 -83
-24 -40 -55 -94 -69 -119 -47 -84 -53 -94 -59 -99 -3 -3 -11 -20 -18 -37 -8
-18 -17 -33 -22 -33 -5 0 -9 -9 -9 -20 0 -11 -4 -20 -8 -20 -9 0 -29 -37 -30
-54 0 -5 -5 -12 -10 -15 -5 -3 -31 -44 -57 -91 -26 -47 -56 -97 -67 -112 -11
-16 -16 -28 -12 -28 4 0 0 -8 -8 -17 -8 -10 -45 -72 -83 -138 -37 -66 -71
-122 -74 -125 -3 -3 -14 -21 -23 -40 -26 -52 -61 -113 -76 -128 -6 -7 -12 -18
-12 -23 0 -5 -15 -32 -32 -61 -53 -86 -68 -111 -79 -140 -6 -16 -15 -28 -20
-28 -5 0 -9 -4 -9 -8 0 -12 -122 -226 -133 -233 -5 -3 -8 -10 -8 -15 1 -5 -6
-17 -14 -26 -8 -10 -11 -18 -7 -18 4 0 2 -4 -3 -8 -6 -4 -17 -20 -25 -37 -8
-16 -17 -32 -21 -35 -3 -3 -13 -21 -22 -40 -19 -37 -31 -58 -60 -102 -10 -16
-15 -28 -10 -28 4 0 3 -4 -2 -8 -6 -4 -18 -19 -27 -34 -15 -22 -15 -28 -4 -38
10 -7 16 -8 21 0 4 6 13 7 23 2 9 -5 28 -6 42 -2 14 4 35 3 48 -1 12 -5 22 -5
22 -1 0 4 11 7 25 7 14 0 25 -3 25 -6 0 -4 16 -3 35 1 20 4 38 4 41 -1 3 -5
11 -6 17 -2 13 8 86 8 94 -1 3 -3 14 -1 24 5 13 7 19 6 19 -1 0 -7 6 -8 19 0
13 6 22 7 26 0 4 -6 15 -6 31 0 17 7 23 7 19 0 -4 -7 3 -7 20 0 18 7 33 7 46
0 13 -7 19 -7 19 -1 0 7 8 7 23 2 12 -5 32 -5 44 0 12 4 25 4 28 -1 3 -5 18
-5 33 0 16 4 36 4 45 -2 10 -5 17 -5 17 -1 0 4 11 8 25 8 14 0 25 -3 25 -6 0
-4 18 -3 39 1 21 4 46 3 55 -2 9 -5 16 -5 16 -1 0 4 11 8 25 8 14 0 25 -3 25
-7 0 -4 10 -4 23 1 14 5 30 5 40 0 11 -7 17 -6 17 0 0 7 8 7 23 2 12 -5 31 -5
42 -1 11 4 25 3 32 -2 7 -5 14 -5 18 2 4 7 12 7 26 0 10 -6 19 -7 19 -3 0 9
89 8 97 -1 3 -3 14 -1 24 5 13 7 19 6 19 -1 0 -7 6 -8 19 0 13 6 22 7 26 0 4
-6 15 -6 31 0 17 7 23 7 19 0 -4 -7 3 -7 20 0 18 7 33 7 46 0 13 -7 19 -7 19
-1 0 7 8 7 22 2 13 -5 33 -5 45 0 12 4 25 4 28 -1 3 -5 18 -5 33 0 16 4 36 4
45 -2 10 -5 17 -5 17 -1 0 4 11 8 25 8 14 0 25 -3 25 -6 0 -4 18 -3 39 1 21 4
46 3 55 -2 9 -5 16 -5 16 -1 0 4 11 8 25 8 14 0 25 -3 25 -7 0 -4 10 -4 23 1
14 5 30 5 40 0 11 -7 17 -6 17 0 0 7 8 7 23 2 12 -5 31 -5 42 -1 11 4 25 3 32
-2 7 -5 14 -5 18 2 4 7 12 7 26 0 10 -6 19 -7 19 -3 0 9 89 8 97 -1 3 -3 14
-1 24 5 13 7 19 6 19 -1 0 -7 6 -8 19 0 13 6 22 7 26 0 4 -6 15 -6 31 0 17 7
23 7 19 0 -4 -7 3 -7 20 0 18 7 33 7 46 0 13 -7 19 -7 19 -1 0 7 8 7 23 2 12
-5 32 -5 44 0 12 4 25 4 28 -1 3 -5 18 -5 33 0 16 4 36 4 45 -2 10 -5 17 -5
17 -1 0 4 11 8 25 8 14 0 25 -3 25 -6 0 -4 18 -3 39 1 21 4 46 3 55 -2 9 -5
16 -5 16 -1 0 4 11 8 25 8 14 0 25 -3 25 -7 0 -4 10 -4 23 1 14 5 30 5 40 0
11 -7 17 -6 17 0 0 7 8 7 23 2 12 -5 31 -5 42 -1 11 4 25 3 32 -2 7 -5 14 -5
18 2 4 7 12 7 26 0 10 -6 19 -7 19 -3 0 9 89 8 97 -1 3 -3 14 -1 24 5 13 7 19
6 19 -1 0 -7 6 -8 19 0 13 6 22 7 26 0 4 -6 15 -6 31 0 17 7 23 7 19 0 -4 -7
3 -7 20 0 18 7 33 7 46 0 13 -7 19 -7 19 -1 0 7 8 7 23 2 12 -5 32 -5 44 0 12
4 25 4 28 -1 3 -5 18 -5 33 0 16 4 36 4 45 -2 10 -5 17 -5 17 -1 0 4 11 8 25
8 14 0 25 -3 25 -6 0 -4 18 -3 39 1 21 4 46 3 55 -2 9 -5 16 -5 16 -1 0 4 11
8 25 8 14 0 25 -3 25 -7 0 -4 10 -4 23 1 14 5 30 5 40 0 11 -7 17 -6 17 0 0 7
8 7 23 2 12 -5 31 -5 42 -1 11 4 25 3 32 -2 7 -5 14 -5 18 2 4 7 12 7 26 0 10
-6 19 -7 19 -3 0 9 89 8 97 -1 3 -3 14 -1 24 5 13 7 19 6 19 -1 0 -7 6 -8 19
0 13 6 22 7 26 0 4 -6 15 -6 31 0 17 7 23 7 19 0 -4 -7 3 -7 20 0 18 7 33 7
46 0 12 -7 19 -7 19 -1 0 7 9 7 23 2 12 -5 32 -5 44 0 13 5 25 4 28 -1 3 -5
18 -5 33 0 16 4 36 4 45 -2 10 -5 17 -5 17 -1 0 4 11 8 25 8 14 0 25 -3 25 -6
0 -4 18 -3 39 1 21 4 46 3 55 -2 9 -5 16 -5 16 -1 0 4 11 8 25 8 14 0 25 -3
25 -7 0 -4 10 -4 23 1 14 5 30 5 40 0 11 -7 17 -6 17 0 0 7 8 7 23 2 12 -5 31
-5 42 -1 11 4 25 3 32 -2 7 -5 14 -5 18 2 4 7 12 7 26 0 10 -6 19 -7 19 -3 0
9 89 8 97 -1 3 -3 14 -1 24 5 13 7 19 6 19 -1 0 -7 6 -8 19 0 13 6 22 7 26 0
4 -6 15 -6 31 0 17 7 23 7 19 0 -4 -7 3 -7 20 0 18 7 33 7 46 0 13 -7 19 -7
19 -1 0 7 8 7 23 2 12 -5 32 -5 44 0 12 4 25 4 28 -1 3 -5 18 -5 33 0 16 4 36
4 45 -2 10 -5 17 -5 17 -1 0 4 11 8 25 8 14 0 25 -3 25 -6 0 -4 18 -3 39 1 21
4 46 3 55 -2 9 -5 16 -5 16 -1 0 4 11 8 25 8 14 0 25 -3 25 -7 0 -4 10 -4 23
1 14 5 30 5 40 0 11 -7 17 -6 17 0 0 7 8 7 23 2 12 -5 31 -5 42 -1 11 4 25 3
32 -2 7 -5 14 -5 18 2 4 7 12 7 26 0 10 -6 19 -7 19 -3 0 9 89 8 97 -1 3 -3
14 -1 24 5 13 7 19 6 19 -1 0 -7 6 -8 19 0 13 6 22 7 26 0 4 -6 15 -6 31 0 17
7 23 7 19 0 -4 -7 3 -7 20 0 18 7 33 7 46 0 13 -7 19 -7 19 -1 0 7 8 7 23 2
12 -5 32 -5 44 0 12 4 25 4 28 -1 3 -5 18 -5 33 0 16 4 36 4 45 -2 10 -5 17
-5 17 -1 0 4 11 8 25 8 14 0 25 -3 25 -6 0 -4 18 -3 39 1 21 4 46 3 55 -2 9
-5 16 -5 16 -1 0 4 11 8 25 8 14 0 25 -3 25 -7 0 -4 10 -4 23 1 14 5 30 5 40
0 11 -7 17 -6 17 0 0 7 8 7 23 2 12 -5 31 -5 42 -1 11 4 25 3 32 -2 7 -5 14
-5 18 2 4 7 12 7 26 0 10 -6 19 -7 19 -3 0 9 89 8 97 -1 3 -3 14 -1 24 5 13 7
19 6 19 -1 0 -7 6 -8 19 0 13 6 22 7 26 0 4 -6 15 -6 31 0 17 7 23 7 19 0 -4
-7 3 -7 20 0 18 7 33 7 46 0 13 -7 19 -7 19 -1 0 7 8 7 23 2 12 -5 32 -5 44 0
12 4 25 4 28 -1 3 -5 18 -5 33 0 16 4 36 4 45 -2 10 -5 17 -5 17 -1 0 4 11 8
25 8 14 0 25 -3 25 -6 0 -4 18 -3 39 1 21 4 46 3 55 -2 9 -5 16 -5 16 -1 0 4
11 8 25 8 14 0 25 -3 25 -7 0 -4 10 -4 23 1 14 5 30 5 40 0 11 -7 17 -6 17 0
0 7 8 7 23 2 12 -5 31 -5 42 -1 11 4 25 3 32 -2 7 -5 14 -5 18 2 4 7 12 7 26
0 10 -6 19 -7 19 -3 0 9 89 8 97 -1 3 -3 14 -1 24 5 13 7 19 6 19 -1 0 -7 6
-8 19 0 13 6 22 7 26 0 4 -6 15 -6 31 0 17 7 23 7 19 0 -4 -7 3 -7 20 0 18 7
33 7 46 0 13 -7 19 -7 19 -1 0 7 8 7 23 2 12 -5 32 -5 44 0 12 4 25 4 28 -1 3
-5 18 -5 33 0 16 4 36 4 45 -2 10 -5 17 -5 17 -1 0 4 11 8 25 8 14 0 25 -3 25
-6 0 -4 18 -3 39 1 21 4 46 3 55 -2 9 -5 16 -5 16 -1 0 4 11 8 25 8 14 0 25
-3 25 -7 0 -4 10 -4 23 1 14 5 30 5 40 0 11 -7 17 -6 17 0 0 7 8 7 23 2 12 -5
31 -5 42 -1 11 4 25 3 32 -2 7 -5 14 -5 18 2 4 7 12 7 26 0 10 -6 19 -7 19 -3
0 9 89 8 97 -1 3 -3 14 -1 24 5 13 7 19 6 19 -1 0 -7 6 -8 19 0 13 6 22 7 26
0 4 -6 15 -6 31 0 17 7 23 7 19 0 -4 -7 3 -7 20 0 18 7 33 7 46 0 13 -7 19 -7
19 -1 0 7 8 7 23 2 12 -5 32 -5 44 0 12 4 25 4 28 -1 3 -5 18 -5 33 0 16 4 36
4 45 -2 10 -5 17 -5 17 -1 0 4 11 8 25 8 14 0 25 -3 25 -6 0 -4 18 -3 39 1 21
4 46 3 55 -2 9 -5 16 -5 16 -1 0 4 11 8 25 8 14 0 25 -3 25 -7 0 -4 10 -4 23
1 14 5 30 5 40 0 11 -7 17 -6 17 0 0 7 8 7 23 2 12 -5 31 -5 42 -1 11 4 25 3
32 -2 7 -5 14 -5 18 2 4 7 12 7 26 0 10 -6 19 -7 19 -3 0 9 89 8 97 -1 3 -3
14 -1 24 5 13 7 19 6 19 -1 0 -7 6 -8 19 0 13 6 22 7 26 0 4 -6 15 -6 31 0 17
7 23 7 19 0 -4 -7 3 -7 20 0 18 7 33 7 46 0 13 -7 19 -7 19 -1 0 7 8 7 23 2
12 -5 32 -5 44 0 12 4 25 4 27 0 6 -8 56 -3 56 6 0 3 -8 17 -18 31 -10 15 -24
41 -32 57 -8 17 -18 32 -21 35 -3 3 -19 30 -36 60 -17 30 -97 170 -178 310
-81 140 -155 269 -163 285 -9 17 -18 32 -21 35 -4 3 -12 16 -19 30 -7 14 -26
48 -43 75 -16 28 -33 58 -36 68 -3 9 -10 17 -16 17 -6 0 -7 3 -4 6 4 4 -2 19
-12 33 -10 14 -28 42 -39 61 -160 283 -268 466 -277 472 -5 4 -6 8 -1 8 5 0 2
8 -6 18 -9 9 -28 40 -43 67 -16 28 -39 68 -52 90 -12 22 -28 51 -35 65 -7 14
-18 31 -25 38 -7 7 -16 24 -19 38 -3 13 -9 24 -13 24 -4 0 -18 23 -31 50 -13
28 -27 50 -32 50 -4 0 -8 4 -8 9 0 6 -17 38 -37 73 -21 35 -38 65 -38 68 0 3
-8 16 -17 30 -8 14 -35 59 -59 100 -24 41 -48 83 -54 92 -5 9 -23 41 -39 70
-16 29 -37 65 -47 80 -11 14 -19 31 -19 36 0 6 -6 17 -13 24 -7 7 -21 29 -30
48 -10 19 -31 56 -47 82 -15 25 -39 66 -53 90 -46 82 -52 93 -57 98 -3 3 -13
21 -24 40 -26 50 -58 105 -132 232 -35 61 -64 113 -64 116 0 3 -10 19 -23 36
-12 17 -29 45 -37 61 -8 17 -17 32 -21 35 -3 3 -13 21 -23 40 -10 19 -29 53
-42 75 -13 22 -30 52 -36 68 -7 15 -16 27 -20 27 -4 0 -8 7 -8 15 0 8 -5 15
-12 15 -6 0 -9 3 -5 6 3 4 -5 23 -18 43 -14 19 -25 41 -25 47 0 7 -4 14 -8 16
-7 3 -123 200 -205 348 -17 30 -38 66 -49 79 -10 13 -18 28 -18 33 0 5 -16 34
-35 64 -19 30 -35 58 -35 63 0 5 -7 14 -15 21 -8 7 -15 21 -15 31 0 11 -3 19
-8 19 -4 0 -19 21 -32 48 -14 26 -27 49 -30 52 -3 3 -11 16 -18 30 -7 14 -24
43 -37 65 -14 22 -28 48 -32 58 -3 9 -9 17 -14 17 -5 0 -9 4 -9 10 0 8 -126
231 -209 370 -11 19 -35 61 -53 93 -64 114 -63 113 -130 222 -10 17 -21 38
-24 48 -4 9 -11 17 -17 17 -6 0 -8 3 -4 6 3 3 -10 30 -29 59 -19 30 -34 56
-34 59 0 2 -22 41 -50 85 -27 45 -50 85 -51 89 -2 7 -16 31 -56 94 -12 21 -23
40 -23 42 0 3 -37 67 -81 143 -45 76 -90 154 -101 173 -10 19 -28 51 -39 70
-12 19 -31 53 -42 75 -12 22 -25 42 -28 45 -4 3 -19 28 -33 55 -15 28 -37 66
-48 85 -26 46 -206 356 -228 395 -10 17 -31 54 -49 83 -17 29 -31 55 -31 58 0
3 -15 29 -34 57 -18 29 -42 68 -52 87 -11 19 -23 38 -27 41 -5 3 -9 10 -9 15
0 8 -12 29 -71 129 -10 16 -20 38 -23 48 -4 9 -10 17 -15 17 -5 0 -9 7 -9 15
0 9 -9 25 -20 37 -10 12 -17 25 -14 30 3 4 1 8 -5 8 -5 0 -13 10 -17 23 -3 12
-16 36 -28 52 -11 17 -21 32 -21 35 -1 3 -12 23 -26 45 -13 22 -31 54 -39 70
-8 17 -19 35 -23 40 -16 21 -77 128 -77 135 0 5 -6 15 -12 22 -16 17 -56 84
-71 121 -6 15 -15 27 -19 27 -4 0 -8 6 -8 14 0 7 -8 24 -19 37 -10 13 -31 48
-47 77 -16 29 -34 61 -39 70 -6 9 -37 64 -70 122 -33 58 -63 107 -67 108 -4 2
-8 8 -8 13 0 6 -28 58 -63 117 -35 59 -66 114 -70 122 -27 54 -76 135 -84 137
-5 2 -26 -27 -48 -64z"/>
</g>
</svg>
